<?xml version="1.0" standalone="no"?>
<svg viewBox="0 0 200 200" xmlns="http://www.w3.org/2000/svg">
  <path fill="#B33E38" d="M33.2,-41.9C44.9,-44.2,57.5,-38.1,68.2,-27.4C78.9,-16.7,87.6,-1.5,79.5,7C71.4,15.5,46.6,17.2,33.9,26.2C21.1,35.2,20.6,51.6,13.5,60.4C6.3,69.1,-7.3,70.2,-20.8,67.6C-34.3,65.1,-47.6,59,-56.3,48.9C-65.1,38.7,-69.2,24.6,-69.6,11C-70,-2.6,-66.7,-15.8,-57,-21.5C-47.3,-27.2,-31.3,-25.4,-20.7,-23.6C-10.1,-21.8,-5.1,-20,2.9,-24.4C10.8,-28.8,21.5,-39.6,33.2,-41.9Z" transform="translate(100 100)" />
</svg>
