<?xml version="1.0" standalone="no"?>
<svg viewBox="0 0 200 200" xmlns="http://www.w3.org/2000/svg">
  <path fill="#B33E38" d="M37.9,-57.6C47.4,-52.8,52.2,-39.4,50.4,-27.7C48.6,-15.9,40,-5.7,40,6.9C39.9,19.4,48.4,34.4,46.6,45.4C44.8,56.4,32.8,63.5,20.1,66.4C7.3,69.2,-6.1,67.7,-17.4,62.8C-28.8,57.9,-38.2,49.5,-45.8,40.1C-53.4,30.6,-59.3,20,-63.9,7.4C-68.4,-5.1,-71.6,-19.6,-68.6,-33.4C-65.5,-47.2,-56.3,-60.2,-43.8,-63.6C-31.3,-67.1,-15.7,-61,-0.8,-59.9C14.2,-58.7,28.3,-62.4,37.9,-57.6Z" transform="translate(100 100)" />
</svg>
