<?xml version="1.0" standalone="no"?>
<svg viewBox="0 0 200 200" xmlns="http://www.w3.org/2000/svg">
  <path fill="#B33E38" d="M40.4,-66.7C49.2,-57.3,50.9,-40.7,52.3,-27C53.8,-13.4,54.8,-2.7,56.1,10.1C57.5,22.9,59,37.7,52.3,45.1C45.5,52.6,30.5,52.6,15.9,59.2C1.3,65.8,-12.9,78.9,-26.3,79.6C-39.7,80.2,-52.5,68.3,-56.3,54.2C-60.1,40,-55,23.6,-57.9,7.9C-60.7,-7.7,-71.5,-22.6,-67.9,-31.2C-64.3,-39.7,-46.3,-41.9,-32.6,-49C-18.9,-56.2,-9.4,-68.4,3.2,-73.4C15.8,-78.4,31.7,-76.1,40.4,-66.7Z" transform="translate(100 100)" />
</svg>
